<?xml version="1.0" encoding="UTF-8"?><svg xmlns="http://www.w3.org/2000/svg" xmlns:xlink="http://www.w3.org/1999/xlink" viewBox="0 0 359.2 363.05"><defs><style>.cls-1{fill:url(#radial-gradient);}.cls-1,.cls-2,.cls-3,.cls-4,.cls-5,.cls-6,.cls-7{mix-blend-mode:multiply;}.cls-1,.cls-2,.cls-3,.cls-4,.cls-7{opacity:.6;}.cls-8{isolation:isolate;}.cls-2{fill:url(#linear-gradient-5);}.cls-3{fill:url(#linear-gradient-4);}.cls-4{fill:url(#linear-gradient-2);}.cls-5{fill:url(#linear-gradient-3);opacity:.2;}.cls-9{fill:#39c6f3;}.cls-6{fill:url(#linear-gradient);opacity:.7;}.cls-7{fill:url(#radial-gradient-2);}</style><radialGradient id="radial-gradient" cx="217.88" cy="142.8" fx="217.88" fy="142.8" r="132.45" gradientTransform="translate(-85.87 49.9) rotate(-3.25)" gradientUnits="userSpaceOnUse"><stop offset="0" stop-color="#fff"/><stop offset="1" stop-color="#231f20" stop-opacity=".5"/></radialGradient><radialGradient id="radial-gradient-2" cx="158.37" cy="102.59" fx="168.23" fy="36.53" r="281.14" xlink:href="#radial-gradient"/><linearGradient id="linear-gradient" x1="78.54" y1="244.73" x2="364.91" y2="244.73" gradientTransform="translate(-85.87 49.9) rotate(-3.25)" gradientUnits="userSpaceOnUse"><stop offset="0" stop-color="#fff"/><stop offset="1" stop-color="#231f20"/></linearGradient><linearGradient id="linear-gradient-2" x1="131.37" y1="46.9" x2="79.8" y2="111.83" gradientTransform="translate(-85.87 49.9) rotate(-3.25)" gradientUnits="userSpaceOnUse"><stop offset="0" stop-color="#fff"/><stop offset=".53" stop-color="#e3e4e5"/><stop offset="1" stop-color="#231f20"/></linearGradient><linearGradient id="linear-gradient-3" x1="147.32" y1="46.61" x2="118.34" y2="60.22" gradientTransform="translate(-85.87 49.9) rotate(-3.25)" gradientUnits="userSpaceOnUse"><stop offset="0" stop-color="#fff"/><stop offset=".05" stop-color="#f5f5f5"/><stop offset=".14" stop-color="#dcdcdc"/><stop offset=".24" stop-color="#b4b3b3"/><stop offset=".37" stop-color="#7c797a"/><stop offset=".51" stop-color="#353132"/><stop offset=".55" stop-color="#231f20"/><stop offset="1" stop-color="#fff"/></linearGradient><linearGradient id="linear-gradient-4" x1="104.54" y1="140.83" x2="384.75" y2="249.75" gradientTransform="translate(-85.87 49.9) rotate(-3.25)" gradientUnits="userSpaceOnUse"><stop offset=".5" stop-color="#fff"/><stop offset="1" stop-color="#231f20"/></linearGradient><linearGradient id="linear-gradient-5" x1="56.87" y1="118.92" x2="340.14" y2="229.03" gradientTransform="matrix(1,0,0,1,0,0)" xlink:href="#linear-gradient-4"/></defs><g class="cls-8"><g id="Layer_1"><path class="cls-9" d="M141.09,2.58s1.58-.41,4.59-1.19c2.99-.59,7.64-1.71,13.82-1.31,3.13.08,6.69.73,10.66,2.3,3.93,1.62,8,4.84,10.96,9.34,5.94,9.27,6.31,20.57,5.49,31.15-2.07,21.45-9.53,43.5-17.79,66.37-4.18,11.42-8.67,23-13.25,34.62-4.5,11.66-9.15,23.33-13.35,35.02-4.42,11.63-8.3,23.31-11.79,34.74-3.35,11.46-6.32,22.71-8.18,33.6-3.96,21.77-3.79,41.97.72,58.74,2.16,8.41,5.35,15.93,8.79,22.46,3.4,6.56,7.24,11.98,10.53,16.47,3.48,4.28,6.22,7.9,8.34,10.07,2.03,2.32,3.11,3.58,3.11,3.58,0,0-1.52-.64-4.39-1.84-2.87-1.22-7.03-3.15-12.06-6.22-4.92-3.21-11.09-7.16-17.08-13.19-6.05-5.91-12.26-13.54-17.43-23-5.16-9.41-9.22-20.6-11.57-32.7-2.35-12.11-2.94-25.04-2.16-38.12.75-13.09,2.89-26.3,6.07-39.29,3.05-13.04,7.22-25.82,11.74-38.31,4.7-12.44,9.71-24.61,15.1-36.24,5.3-11.69,10.86-22.92,16.27-33.62,10.69-21.38,21.29-40.91,27.05-57.36,2.74-8.13,4.31-15.52,3.01-20.48-1.07-4.95-5.6-8.8-10.46-10.84-4.81-2.05-9.1-3.2-12.11-3.79-3.02-.62-4.63-.96-4.63-.96Z"/><path class="cls-1" d="M141.09,2.58s1.58-.41,4.59-1.19c2.99-.59,7.64-1.71,13.82-1.31,3.13.08,6.69.73,10.66,2.3,3.93,1.62,8,4.84,10.96,9.34,5.94,9.27,6.31,20.57,5.49,31.15-2.07,21.45-9.53,43.5-17.79,66.37-4.18,11.42-8.67,23-13.25,34.62-4.5,11.66-9.15,23.33-13.35,35.02-4.42,11.63-8.3,23.31-11.79,34.74-3.35,11.46-6.32,22.71-8.18,33.6-3.96,21.77-3.79,41.97.72,58.74,2.16,8.41,5.35,15.93,8.79,22.46,3.4,6.56,7.24,11.98,10.53,16.47,3.48,4.28,6.22,7.9,8.34,10.07,2.03,2.32,3.11,3.58,3.11,3.58,0,0-1.52-.64-4.39-1.84-2.87-1.22-7.03-3.15-12.06-6.22-4.92-3.21-11.09-7.16-17.08-13.19-6.05-5.91-12.26-13.54-17.43-23-5.16-9.41-9.22-20.6-11.57-32.7-2.35-12.11-2.94-25.04-2.16-38.12.75-13.09,2.89-26.3,6.07-39.29,3.05-13.04,7.22-25.82,11.74-38.31,4.7-12.44,9.71-24.61,15.1-36.24,5.3-11.69,10.86-22.92,16.27-33.62,10.69-21.38,21.29-40.91,27.05-57.36,2.74-8.13,4.31-15.52,3.01-20.48-1.07-4.95-5.6-8.8-10.46-10.84-4.81-2.05-9.1-3.2-12.11-3.79-3.02-.62-4.63-.96-4.63-.96Z"/><path class="cls-9" d="M134.47,9.13s-.74,1.77-2.14,5.11c-1.29,3.25-3.6,8.38-6.6,14.89-5.86,12.61-14.68,29.91-25.15,50.48-10.39,20.57-22.37,44.49-33.36,70.74-10.77,26.22-20.71,54.99-24.06,84.52-1.55,14.68-1.07,29.51,2.33,43.38,3.4,13.84,9.96,26.58,19.08,36.89,9.45,9.96,20.44,18.07,32.07,23.81,5.61,3.24,11.73,5.07,17.33,7.6,5.71,2.23,11.54,3.62,16.98,5.38,5.43,1.87,10.94,2.53,16.02,3.78,5.12,1.1,9.98,2.22,14.65,2.71,9.27,1.16,17.35,2.73,24.08,3.01,13.46,1.04,21.14,1.62,21.14,1.62,0,0-7.72-.11-21.23-.33-6.77.14-14.93-.94-24.36-1.53-4.72-.22-9.69-1.06-14.94-1.84-5.22-.96-10.85-1.28-16.49-2.84-5.65-1.45-11.69-2.51-17.73-4.45-5.92-2.24-12.37-3.77-18.47-6.8-12.51-5.26-24.87-13.14-35.97-23.55-10.8-10.74-19.21-24.77-23.96-40.13-4.79-15.37-6.26-31.8-5.57-47.83,1.7-32.15,10.36-62.89,19.84-90.7,9.69-27.8,20.41-52.92,29.59-74.24,9.27-21.29,16.9-38.87,21.69-51.04-.38-4.92,40.42-16.59,35.24-8.63Z"/><path class="cls-7" d="M134.47,9.13s-.74,1.77-2.14,5.11c-1.29,3.25-3.6,8.38-6.6,14.89-5.86,12.61-14.68,29.91-25.15,50.48-10.39,20.57-22.37,44.49-33.36,70.74-10.77,26.22-20.71,54.99-24.06,84.52-1.55,14.68-1.07,29.51,2.33,43.38,3.4,13.84,9.96,26.58,19.08,36.89,9.45,9.96,20.44,18.07,32.07,23.81,5.61,3.24,11.73,5.07,17.33,7.6,5.71,2.23,11.54,3.62,16.98,5.38,5.43,1.87,10.94,2.53,16.02,3.78,5.12,1.1,9.98,2.22,14.65,2.71,9.27,1.16,17.35,2.73,24.08,3.01,13.46,1.04,21.14,1.62,21.14,1.62,0,0-7.72-.11-21.23-.33-6.77.14-14.93-.94-24.36-1.53-4.72-.22-9.69-1.06-14.94-1.84-5.22-.96-10.85-1.28-16.49-2.84-5.65-1.45-11.69-2.51-17.73-4.45-5.92-2.24-12.37-3.77-18.47-6.8-12.51-5.26-24.87-13.14-35.97-23.55-10.8-10.74-19.21-24.77-23.96-40.13-4.79-15.37-6.26-31.8-5.57-47.83,1.7-32.15,10.36-62.89,19.84-90.7,9.69-27.8,20.41-52.92,29.59-74.24,9.27-21.29,16.9-38.87,21.69-51.04-.38-4.92,40.42-16.59,35.24-8.63Z"/><path class="cls-9" d="M2.77,225.56s3.58,3.92,9.46,10.99c1.44,1.79,3.06,3.72,4.85,5.88,1.74,2.18,3.59,4.49,5.9,6.61,4.31,4.39,9.18,9.34,14.51,14.75,2.9,2.42,5.93,4.95,9.06,7.56,3.23,2.48,5.92,5.72,9.66,7.93,7.16,4.76,14.21,10.3,22.56,14.4,4.13,2.05,7.93,4.85,12.41,6.55,4.33,1.88,8.74,3.79,13.17,5.72,4.45,1.89,9.25,3.05,13.85,4.73,2.34.75,4.64,1.66,7,2.28l7.23,1.71c9.52,2.75,19.43,4.03,29.09,5.84,9.83.99,19.46,2.51,28.98,2.89,9.46.82,18.72,1.06,27.53,1.44,8.85.11,17.23.24,24.96.35,7.81.02,14.95.05,21.3.08,6.36-.08,11.93.16,16.52.18,9.2.14,14.49.49,14.49.49,0,0-5.05,1.61-13.96,3.99-8.9,2.33-21.66,5.51-37.25,8.2-7.78,1.38-16.32,2.64-25.37,3.56-9.11.78-18.72,1.86-28.77,1.76-10.04.4-20.47-.44-31.09-1.18-10.58-1.41-21.34-2.8-31.94-5.69l-7.94-2c-2.64-.75-5.19-1.77-7.78-2.63-5.15-1.89-10.34-3.53-15.26-5.8-9.78-4.69-19.38-9.33-27.73-15.49-8.88-5.28-15.9-12.52-22.95-18.63-6.85-6.37-12.14-13.57-17.42-19.63-4.77-6.63-8.58-13.11-12.05-18.61-1.81-2.73-3.23-5.36-4.26-7.94-1.14-2.52-2.18-4.85-3.11-6.95-3.75-8.41-5.66-13.35-5.66-13.35Z"/><path class="cls-6" d="M2.77,225.56s3.58,3.92,9.46,10.99c1.44,1.79,3.06,3.72,4.85,5.88,1.74,2.18,3.59,4.49,5.9,6.61,4.31,4.39,9.18,9.34,14.51,14.75,2.9,2.42,5.93,4.95,9.06,7.56,3.23,2.48,5.92,5.72,9.66,7.93,7.16,4.76,14.21,10.3,22.56,14.4,4.13,2.05,7.93,4.85,12.41,6.55,4.33,1.88,8.74,3.79,13.17,5.72,4.45,1.89,9.25,3.05,13.85,4.73,2.34.75,4.64,1.66,7,2.28l7.23,1.71c9.52,2.75,19.43,4.03,29.09,5.84,9.83.99,19.46,2.51,28.98,2.89,9.46.82,18.72,1.06,27.53,1.44,8.85.11,17.23.24,24.96.35,7.81.02,14.95.05,21.3.08,6.36-.08,11.93.16,16.52.18,9.2.14,14.49.49,14.49.49,0,0-5.05,1.61-13.96,3.99-8.9,2.33-21.66,5.51-37.25,8.2-7.78,1.38-16.32,2.64-25.37,3.56-9.11.78-18.72,1.86-28.77,1.76-10.04.4-20.47-.44-31.09-1.18-10.58-1.41-21.34-2.8-31.94-5.69l-7.94-2c-2.64-.75-5.19-1.77-7.78-2.63-5.15-1.89-10.34-3.53-15.26-5.8-9.78-4.69-19.38-9.33-27.73-15.49-8.88-5.28-15.9-12.52-22.95-18.63-6.85-6.37-12.14-13.57-17.42-19.63-4.77-6.63-8.58-13.11-12.05-18.61-1.81-2.73-3.23-5.36-4.26-7.94-1.14-2.52-2.18-4.85-3.11-6.95-3.75-8.41-5.66-13.35-5.66-13.35Z"/><path class="cls-9" d="M7.63,122.75C25.15,74.74,59.71,40.18,90.37,20.56,27.88,94.51,19.21,165.41,19.21,165.41c0,0-16.12-30.19-11.58-42.66Z"/><path class="cls-4" d="M7.63,122.75C25.15,74.74,59.71,40.18,90.37,20.56,27.88,94.51,19.21,165.41,19.21,165.41c0,0-16.12-30.19-11.58-42.66Z"/><path class="cls-5" d="M7.63,122.75C25.15,74.74,59.71,40.18,90.37,20.56,27.88,94.51,19.21,165.41,19.21,165.41c0,0-16.12-30.19-11.58-42.66Z"/><path class="cls-9" d="M7.63,122.75c14.19,161.48,405.84,79.49,300.59,197.98C360.57,223.49-61.28,349.26,7.63,122.75Z"/><path class="cls-3" d="M7.63,122.75c14.19,161.48,405.84,79.49,300.59,197.98C360.57,223.49-61.28,349.26,7.63,122.75Z"/><path class="cls-9" d="M38.18,67.6c-1.43,126.83,422.04,102.77,298.4,184.13,65.4-70.23-394.54-15.2-298.4-184.13Z"/><path class="cls-2" d="M38.18,67.6c-1.43,126.83,422.04,102.77,298.4,184.13,65.4-70.23-394.54-15.2-298.4-184.13Z"/></g></g></svg>