<?xml version="1.0" encoding="UTF-8"?>
<svg xmlns="http://www.w3.org/2000/svg" xmlns:xlink="http://www.w3.org/1999/xlink" viewBox="0 0 322.71 82.09">
  <defs>
    <radialGradient id="radial-gradient" cx="112.24" cy="-1.35" r="29.95" gradientTransform="matrix(1, -0.06, 0.06, 1, -77.99, 49.35)" gradientUnits="userSpaceOnUse">
      <stop offset="0" stop-color="#fff"></stop>
      <stop offset="1" stop-color="#231f20" stop-opacity="0.5"></stop>
    </radialGradient>
    <radialGradient id="radial-gradient-2" cx="98.79" cy="-10.44" fy="-25.37845134711563" r="63.57" xlink:href="#radial-gradient"></radialGradient>
    <linearGradient id="linear-gradient" x1="80.74" y1="21.69" x2="145.49" y2="21.69" gradientTransform="matrix(1, -0.06, 0.06, 1, -77.99, 49.35)" gradientUnits="userSpaceOnUse">
      <stop offset="0" stop-color="#fff"></stop>
      <stop offset="1" stop-color="#231f20"></stop>
    </linearGradient>
    <linearGradient id="linear-gradient-2" x1="92.68" y1="-23.03" x2="81.02" y2="-8.35" gradientTransform="matrix(1, -0.06, 0.06, 1, -77.99, 49.35)" gradientUnits="userSpaceOnUse">
      <stop offset="0" stop-color="#fff"></stop>
      <stop offset="0.53" stop-color="#e3e4e5"></stop>
      <stop offset="1" stop-color="#231f20"></stop>
    </linearGradient>
    <linearGradient id="linear-gradient-3" x1="96.29" y1="-23.1" x2="89.74" y2="-20.02" gradientTransform="matrix(1, -0.06, 0.06, 1, -77.99, 49.35)" gradientUnits="userSpaceOnUse">
      <stop offset="0" stop-color="#fff"></stop>
      <stop offset="0.05" stop-color="#f6f6f6"></stop>
      <stop offset="0.14" stop-color="#dddcdc"></stop>
      <stop offset="0.24" stop-color="#b4b3b3"></stop>
      <stop offset="0.37" stop-color="#7c7a7a"></stop>
      <stop offset="0.51" stop-color="#353232"></stop>
      <stop offset="0.55" stop-color="#231f20"></stop>
      <stop offset="1" stop-color="#fff"></stop>
    </linearGradient>
    <linearGradient id="linear-gradient-4" x1="86.62" y1="-1.8" x2="149.97" y2="22.83" gradientTransform="matrix(1, -0.06, 0.06, 1, -77.99, 49.35)" gradientUnits="userSpaceOnUse">
      <stop offset="0.5" stop-color="#fff"></stop>
      <stop offset="1" stop-color="#231f20"></stop>
    </linearGradient>
    <linearGradient id="linear-gradient-5" x1="15.25" y1="27.8" x2="79.3" y2="52.7" gradientTransform="matrix(1, 0, 0, 1, 0, 0)" xlink:href="#linear-gradient-4"></linearGradient>
  </defs>
  <g style="isolation:isolate">
    <g id="Layer_1" data-name="Layer 1">
      <path d="M34.3,1.5l1-.27a10.83,10.83,0,0,1,3.13-.3,7.23,7.23,0,0,1,2.41.52,5.62,5.62,0,0,1,2.47,2.11c1.35,2.1,1.43,4.65,1.24,7-.46,4.85-2.15,9.83-4,15-.94,2.58-2,5.2-3,7.83s-2.07,5.27-3,7.92-1.88,5.27-2.67,7.85A70.38,70.38,0,0,0,30,56.81a30.8,30.8,0,0,0,.17,13.28,23.49,23.49,0,0,0,2,5.08,26.47,26.47,0,0,0,2.38,3.72c.78,1,1.4,1.79,1.88,2.28l.71.81-1-.42a20.44,20.44,0,0,1-2.72-1.4A21.64,21.64,0,0,1,25.63,72,25.8,25.8,0,0,1,23,64.58,34.57,34.57,0,0,1,22.53,56a49.2,49.2,0,0,1,1.37-8.88,77.38,77.38,0,0,1,2.65-8.66c1.07-2.82,2.2-5.57,3.42-8.2s2.46-5.18,3.68-7.6c2.42-4.83,4.81-9.25,6.12-13A9.26,9.26,0,0,0,40.45,5a3.82,3.82,0,0,0-2.37-2.45,14.85,14.85,0,0,0-2.74-.86Z" transform="translate(-2.39 -0.91)" style="fill:#00fbf4"></path>
      <path d="M34.3,1.5l1-.27a10.83,10.83,0,0,1,3.13-.3,7.23,7.23,0,0,1,2.41.52,5.62,5.62,0,0,1,2.47,2.11c1.35,2.1,1.43,4.65,1.24,7-.46,4.85-2.15,9.83-4,15-.94,2.58-2,5.2-3,7.83s-2.07,5.27-3,7.92-1.88,5.27-2.67,7.85A70.38,70.38,0,0,0,30,56.81a30.8,30.8,0,0,0,.17,13.28,23.49,23.49,0,0,0,2,5.08,26.47,26.47,0,0,0,2.38,3.72c.78,1,1.4,1.79,1.88,2.28l.71.81-1-.42a20.44,20.44,0,0,1-2.72-1.4A21.64,21.64,0,0,1,25.63,72,25.8,25.8,0,0,1,23,64.58,34.57,34.57,0,0,1,22.53,56a49.2,49.2,0,0,1,1.37-8.88,77.38,77.38,0,0,1,2.65-8.66c1.07-2.82,2.2-5.57,3.42-8.2s2.46-5.18,3.68-7.6c2.42-4.83,4.81-9.25,6.12-13A9.26,9.26,0,0,0,40.45,5a3.82,3.82,0,0,0-2.37-2.45,14.85,14.85,0,0,0-2.74-.86Z" transform="translate(-2.39 -0.91)" style="mix-blend-mode:multiply;opacity:0.6000000000000001;fill:url(#radial-gradient)"></path>
      <path d="M32.8,3l-.48,1.15c-.3.74-.82,1.9-1.5,3.37-1.32,2.85-3.32,6.76-5.68,11.41s-5.06,10.06-7.55,16S12.91,47.34,12.15,54a28.66,28.66,0,0,0,.53,9.8A19.79,19.79,0,0,0,17,72.17a26,26,0,0,0,7.25,5.38,41.71,41.71,0,0,0,3.92,1.72c1.29.5,2.61.81,3.84,1.21a36.21,36.21,0,0,0,3.62.86,31.75,31.75,0,0,0,3.32.61c2.09.27,3.92.62,5.44.68l4.78.37-4.8-.08c-1.53,0-3.37-.21-5.51-.34a33.67,33.67,0,0,1-3.37-.42c-1.18-.21-2.46-.29-3.73-.64s-2.64-.57-4-1A42.55,42.55,0,0,1,23.56,79a27.69,27.69,0,0,1-8.13-5.33A22.19,22.19,0,0,1,10,64.58,32.15,32.15,0,0,1,8.75,53.76c.39-7.27,2.35-14.22,4.49-20.5s4.61-12,6.69-16.79,3.82-8.79,4.9-11.54C24.75,3.82,34,1.18,32.8,3Z" transform="translate(-2.39 -0.91)" style="fill:#00fbf4"></path>
      <path d="M32.8,3l-.48,1.15c-.3.74-.82,1.9-1.5,3.37-1.32,2.85-3.32,6.76-5.68,11.41s-5.06,10.06-7.55,16S12.91,47.34,12.15,54a28.66,28.66,0,0,0,.53,9.8A19.79,19.79,0,0,0,17,72.17a26,26,0,0,0,7.25,5.38,41.71,41.71,0,0,0,3.92,1.72c1.29.5,2.61.81,3.84,1.21a36.21,36.21,0,0,0,3.62.86,31.75,31.75,0,0,0,3.32.61c2.09.27,3.92.62,5.44.68l4.78.37-4.8-.08c-1.53,0-3.37-.21-5.51-.34a33.67,33.67,0,0,1-3.37-.42c-1.18-.21-2.46-.29-3.73-.64s-2.64-.57-4-1A42.55,42.55,0,0,1,23.56,79a27.69,27.69,0,0,1-8.13-5.33A22.19,22.19,0,0,1,10,64.58,32.15,32.15,0,0,1,8.75,53.76c.39-7.27,2.35-14.22,4.49-20.5s4.61-12,6.69-16.79,3.82-8.79,4.9-11.54C24.75,3.82,34,1.18,32.8,3Z" transform="translate(-2.39 -0.91)" style="mix-blend-mode:multiply;opacity:0.6000000000000001;fill:url(#radial-gradient-2)"></path>
      <path d="M3,51.91s.81.89,2.14,2.49l1.1,1.33a12.84,12.84,0,0,0,1.33,1.49l3.28,3.34c.66.54,1.34,1.11,2.05,1.71a22.85,22.85,0,0,0,2.18,1.79,45.07,45.07,0,0,0,5.11,3.25A28.61,28.61,0,0,0,23,68.79l3,1.3c1,.43,2.09.69,3.13,1.07.53.17,1.05.37,1.58.51l1.64.39c2.15.62,4.39.91,6.58,1.32,2.22.23,4.4.57,6.55.66s4.23.24,6.22.32l5.65.08,4.81,0c1.44,0,2.7,0,3.74,0,2.08,0,3.27.11,3.27.11S68,75,66,75.51s-4.9,1.25-8.42,1.86c-1.76.31-3.69.59-5.74.8s-4.23.42-6.5.4a64.68,64.68,0,0,1-7-.27A53.74,53.74,0,0,1,31.09,77l-1.79-.45c-.6-.17-1.17-.4-1.76-.6-1.16-.43-2.34-.8-3.45-1.31a38.78,38.78,0,0,1-6.27-3.5,36.23,36.23,0,0,1-5.19-4.22,54.46,54.46,0,0,1-3.94-4.43C7.61,61,6.75,59.54,6,58.3a9.6,9.6,0,0,1-1-1.8c-.26-.57-.5-1.09-.71-1.57C3.46,53,3,51.91,3,51.91Z" transform="translate(-2.39 -0.91)" style="fill:#00fbf4"></path>
      <path d="M3,51.91s.81.89,2.14,2.49l1.1,1.33a12.84,12.84,0,0,0,1.33,1.49l3.28,3.34c.66.54,1.34,1.11,2.05,1.71a22.85,22.85,0,0,0,2.18,1.79,45.07,45.07,0,0,0,5.11,3.25A28.61,28.61,0,0,0,23,68.79l3,1.3c1,.43,2.09.69,3.13,1.07.53.17,1.05.37,1.58.51l1.64.39c2.15.62,4.39.91,6.58,1.32,2.22.23,4.4.57,6.55.66s4.23.24,6.22.32l5.65.08,4.81,0c1.44,0,2.7,0,3.74,0,2.08,0,3.27.11,3.27.11S68,75,66,75.51s-4.9,1.25-8.42,1.86c-1.76.31-3.69.59-5.74.8s-4.23.42-6.5.4a64.68,64.68,0,0,1-7-.27A53.74,53.74,0,0,1,31.09,77l-1.79-.45c-.6-.17-1.17-.4-1.76-.6-1.16-.43-2.34-.8-3.45-1.31a38.78,38.78,0,0,1-6.27-3.5,36.23,36.23,0,0,1-5.19-4.22,54.46,54.46,0,0,1-3.94-4.43C7.61,61,6.75,59.54,6,58.3a9.6,9.6,0,0,1-1-1.8c-.26-.57-.5-1.09-.71-1.57C3.46,53,3,51.91,3,51.91Z" transform="translate(-2.39 -0.91)" style="mix-blend-mode:multiply;opacity:0.7000000000000001;fill:url(#linear-gradient)"></path>
      <path d="M4.12,28.67A47.29,47.29,0,0,1,22.83,5.56C8.7,22.28,6.74,38.31,6.74,38.31S3.09,31.49,4.12,28.67Z" transform="translate(-2.39 -0.91)" style="fill:#00fbf4"></path>
      <path d="M4.12,28.67A47.29,47.29,0,0,1,22.83,5.56C8.7,22.28,6.74,38.31,6.74,38.31S3.09,31.49,4.12,28.67Z" transform="translate(-2.39 -0.91)" style="mix-blend-mode:multiply;opacity:0.6000000000000001;fill:url(#linear-gradient-2)"></path>
      <path d="M4.12,28.67A47.29,47.29,0,0,1,22.83,5.56C8.7,22.28,6.74,38.31,6.74,38.31S3.09,31.49,4.12,28.67Z" transform="translate(-2.39 -0.91)" style="mix-blend-mode:multiply;opacity:0.2;fill:url(#linear-gradient-3)"></path>
      <path d="M4.12,28.67c3.21,36.51,91.76,18,68,44.76C83.92,51.44-11.46,79.88,4.12,28.67Z" transform="translate(-2.39 -0.91)" style="fill:#00fbf4"></path>
      <path d="M4.12,28.67c3.21,36.51,91.76,18,68,44.76C83.92,51.44-11.46,79.88,4.12,28.67Z" transform="translate(-2.39 -0.91)" style="mix-blend-mode:multiply;opacity:0.6000000000000001;fill:url(#linear-gradient-4)"></path>
      <path d="M11,16.2C10.7,44.87,106.45,39.43,78.5,57.83,93.28,42-10.71,54.39,11,16.2Z" transform="translate(-2.39 -0.91)" style="fill:#00fbf4"></path>
      <path d="M11,16.2C10.7,44.87,106.45,39.43,78.5,57.83,93.28,42-10.71,54.39,11,16.2Z" transform="translate(-2.39 -0.91)" style="mix-blend-mode:multiply;opacity:0.6000000000000001;fill:url(#linear-gradient-5)"></path>
      <path d="M118.67,32.75l-8.7-.44.4-3.35H126.8V45.75a33,33,0,0,1-3.31,1.2c-1.31.42-2.72.79-4.24,1.12s-3.09.6-4.71.82a33.48,33.48,0,0,1-4.71.34,17.65,17.65,0,0,1-7.77-1.56,13.59,13.59,0,0,1-5.22-4.38,18.56,18.56,0,0,1-2.92-6.77A38.84,38.84,0,0,1,93,27.75a22.69,22.69,0,0,1,1.57-8.66A18.11,18.11,0,0,1,99,12.58a19.48,19.48,0,0,1,6.84-4.11A25.74,25.74,0,0,1,114.61,7c.8,0,1.69,0,2.66.08s1.92.14,2.88.23,1.85.2,2.69.33a20.51,20.51,0,0,1,2.08.43l-1.33,6c-.66-.21-1.5-.42-2.5-.65s-2.08-.42-3.2-.6-2.23-.32-3.33-.44a27.43,27.43,0,0,0-2.94-.18,23.52,23.52,0,0,0-4,.33,7.55,7.55,0,0,0-3.46,1.59,4.8,4.8,0,0,0-1.41,2.12,17.31,17.31,0,0,0-.87,3.33,36.78,36.78,0,0,0-.43,4c-.07,1.43-.1,2.83-.1,4.2,0,5.5.67,9.72,2,12.63s3.52,4.38,6.46,4.38c.74,0,1.53,0,2.36-.09s1.65-.14,2.45-.25,1.55-.21,2.25-.33,1.3-.24,1.8-.36Z" transform="translate(-2.39 -0.91)" style="fill:#fff"></path>
      <path d="M139.17,48.65h-7.81V3.55L139.17,2Z" transform="translate(-2.39 -0.91)" style="fill:#fff"></path>
      <path d="M156.19,49.19q-6.7,0-10.25-3.64T142.39,34.9a19.1,19.1,0,0,1,.87-6,11.85,11.85,0,0,1,2.61-4.51,11.71,11.71,0,0,1,4.33-2.86,16.49,16.49,0,0,1,6-1q6.83,0,10.31,3.7T170,34.81a19.29,19.29,0,0,1-.87,6,11.93,11.93,0,0,1-2.61,4.51,11.65,11.65,0,0,1-4.34,2.85A16.38,16.38,0,0,1,156.19,49.19Zm-5.68-14.33q0,5.4,1.3,7.94a4.47,4.47,0,0,0,4.33,2.54,11.75,11.75,0,0,0,2.19-.19,5.29,5.29,0,0,0,1.69-.61,1.88,1.88,0,0,0,.79-1.09,12.59,12.59,0,0,0,.58-2.17,24.76,24.76,0,0,0,.35-2.94c.07-1.1.11-2.25.11-3.44,0-3.51-.43-6.14-1.31-7.88a4.45,4.45,0,0,0-4.27-2.61,10.71,10.71,0,0,0-2.19.22,6,6,0,0,0-1.87.71,2.2,2.2,0,0,0-.78,1.12,10.16,10.16,0,0,0-.54,2.15c-.13.86-.23,1.82-.29,2.89S150.51,33.69,150.51,34.86Z" transform="translate(-2.39 -0.91)" style="fill:#fff"></path>
      <path d="M173.24,3.55,181.06,2V20.61c0,.54,0,1-.05,1.43s0,1,0,1.47a18.83,18.83,0,0,1,3.52-2.07,10.12,10.12,0,0,1,4.29-.87,11.48,11.48,0,0,1,4.06.73,9.07,9.07,0,0,1,3.46,2.35,11.52,11.52,0,0,1,2.39,4.17,19.13,19.13,0,0,1,.9,6.28,18.7,18.7,0,0,1-1,6.36,13.24,13.24,0,0,1-2.86,4.73,12.08,12.08,0,0,1-4.51,3,16.63,16.63,0,0,1-6,1,55.89,55.89,0,0,1-5.78-.34,34.44,34.44,0,0,1-6.19-1.23Zm18.22,31q0-4.68-1.5-6.88a4.68,4.68,0,0,0-4.06-2.2,12.23,12.23,0,0,0-2.51.26,10,10,0,0,0-2.33.76v18a9.17,9.17,0,0,0,1.75.31c.65.06,1.28.09,1.88.09a14.1,14.1,0,0,0,3-.27,3.76,3.76,0,0,0,1.86-.88,7.46,7.46,0,0,0,1.3-3.06A24.84,24.84,0,0,0,191.46,34.52Z" transform="translate(-2.39 -0.91)" style="fill:#fff"></path>
      <path d="M214.68,49.19q-6.7,0-10.25-3.64c-2.37-2.43-3.54-6-3.54-10.65a19.1,19.1,0,0,1,.87-6,11.28,11.28,0,0,1,6.94-7.37,16.44,16.44,0,0,1,6-1q6.84,0,10.31,3.7t3.49,10.54a19.29,19.29,0,0,1-.87,6A12,12,0,0,1,225,45.33a11.61,11.61,0,0,1-4.33,2.85A16.43,16.43,0,0,1,214.68,49.19ZM209,34.86c0,3.6.44,6.25,1.3,7.94a4.47,4.47,0,0,0,4.33,2.54,11.64,11.64,0,0,0,2.18-.19,5.35,5.35,0,0,0,1.7-.61,1.87,1.87,0,0,0,.78-1.09,12.59,12.59,0,0,0,.58-2.17,24.62,24.62,0,0,0,.36-2.94c.08-1.1.11-2.25.11-3.44q0-5.26-1.32-7.88a4.44,4.44,0,0,0-4.26-2.61,10.63,10.63,0,0,0-2.19.22,6,6,0,0,0-1.87.71,2.2,2.2,0,0,0-.78,1.12,9.59,9.59,0,0,0-.54,2.15c-.13.86-.23,1.82-.29,2.89S209,33.69,209,34.86Z" transform="translate(-2.39 -0.91)" style="fill:#fff"></path>
      <path d="M232,24.94l-2.95-1V22.31l8.47-6h2.16l.09,4.82h8.34l-.35,3c-.63.12-1.39.23-2.3.32s-1.78.16-2.62.22l-3,.27V40.43a5.17,5.17,0,0,0,.54,2.48,2.26,2.26,0,0,0,2.23,1c.3,0,.7,0,1.2-.05s1-.07,1.59-.13,1.09-.12,1.61-.2l1.31-.2v2.27A23.92,23.92,0,0,1,246,46.89a23.64,23.64,0,0,1-2.75,1.16,26.63,26.63,0,0,1-2.92.83,14.32,14.32,0,0,1-2.83.31,10.4,10.4,0,0,1-2-.2,4.44,4.44,0,0,1-1.77-.79,3.89,3.89,0,0,1-1.26-1.63,6.78,6.78,0,0,1-.47-2.74Z" transform="translate(-2.39 -0.91)" style="fill:#fff"></path>
      <path d="M261.61,20.57a13.22,13.22,0,0,1,3.82.55A9.84,9.84,0,0,1,268.85,23a11.42,11.42,0,0,1,2.7,3.53A19.46,19.46,0,0,1,273.27,32v.36a3.93,3.93,0,0,1-1,.89,5.92,5.92,0,0,1-1.59.69,19.73,19.73,0,0,1-2.41.54,32.44,32.44,0,0,1-3.44.38l-8.66.67v1.16a8.18,8.18,0,0,0,1.7,5.32A6.17,6.17,0,0,0,263,44.14a15.74,15.74,0,0,0,2.9-.29,28.93,28.93,0,0,0,2.88-.69c.91-.27,1.74-.54,2.5-.83A16.06,16.06,0,0,0,273,41.6l.66,2c-.83.62-1.77,1.27-2.81,1.94a24.25,24.25,0,0,1-3.35,1.8,22.36,22.36,0,0,1-3.77,1.32,15.85,15.85,0,0,1-4.08.52,13.88,13.88,0,0,1-4.58-.74,9,9,0,0,1-3.66-2.35A11.09,11.09,0,0,1,249,41.91a19.34,19.34,0,0,1-.89-6.29,21,21,0,0,1,1-7A11.81,11.81,0,0,1,252,23.94a11.09,11.09,0,0,1,4.31-2.57A17.35,17.35,0,0,1,261.61,20.57Zm-3.7,4.64a2.71,2.71,0,0,0-.61,1,11.89,11.89,0,0,0-.51,1.74q-.23,1-.36,2.1a19.44,19.44,0,0,0-.13,2.12l8.62-.41c-.09-.8-.23-1.63-.4-2.5a10.64,10.64,0,0,0-.79-2.37,6,6,0,0,0-1.27-1.78,2.55,2.55,0,0,0-1.83-.71,6,6,0,0,0-1.43.17A4.06,4.06,0,0,0,257.91,25.21Z" transform="translate(-2.39 -0.91)" style="fill:#fff"></path>
      <path d="M296,27a28,28,0,0,0-3.5-1.47,13.1,13.1,0,0,0-4.4-.71,9.41,9.41,0,0,0-2,.2,4.18,4.18,0,0,0-1.69.73,4.75,4.75,0,0,0-1.3,2.76,33.73,33.73,0,0,0-.49,6.8,21.43,21.43,0,0,0,.36,4.33,8.08,8.08,0,0,0,1.07,2.87,4.08,4.08,0,0,0,1.78,1.56,6,6,0,0,0,2.46.48,23.68,23.68,0,0,0,4.55-.47,22.56,22.56,0,0,0,4.29-1.27l.71,2a21.25,21.25,0,0,1-5.2,3.1,16.35,16.35,0,0,1-6.41,1.24,14.23,14.23,0,0,1-4.61-.74A9.16,9.16,0,0,1,278,46.1a11.16,11.16,0,0,1-2.48-4.19,19,19,0,0,1-.91-6.29,19.34,19.34,0,0,1,1-6.32,12.61,12.61,0,0,1,2.79-4.73,11.7,11.7,0,0,1,4.55-3,17.5,17.5,0,0,1,6.25-1,30,30,0,0,1,4.31.31c1.44.2,2.76.44,3.95.7Z" transform="translate(-2.39 -0.91)" style="fill:#fff"></path>
      <path d="M307.56,24.36c.54-.36,1.18-.75,1.94-1.18A26.05,26.05,0,0,1,312,22a23.28,23.28,0,0,1,2.77-1,10.25,10.25,0,0,1,2.81-.4,8.22,8.22,0,0,1,2.92.51,6.64,6.64,0,0,1,2.39,1.52,7.11,7.11,0,0,1,1.64,2.52,9.68,9.68,0,0,1,.59,3.57v20h-7.81V30.21a6.64,6.64,0,0,0-.78-3.62,3,3,0,0,0-2.65-1.15,7,7,0,0,0-1.5.17,10.42,10.42,0,0,0-1.65.51c-.55.23-1.1.48-1.63.76a11.54,11.54,0,0,0-1.47.92V48.65h-7.82V3.55L307.61,2V20.72c0,.62,0,1.19-.05,1.72s-.06,1.27-.09,1.92Z" transform="translate(-2.39 -0.91)" style="fill:#fff"></path>
      <path d="M102.2,82.43c-3.63,0-5.6-1.46-5.94-4.37h1.55A2.86,2.86,0,0,0,99,80.15a5.42,5.42,0,0,0,3.13.75,6.74,6.74,0,0,0,1.78-.21,4.28,4.28,0,0,0,1.27-.59,2.44,2.44,0,0,0,.75-.89,2.47,2.47,0,0,0,.25-1.11,2.39,2.39,0,0,0-.2-1,1.88,1.88,0,0,0-.73-.76,6.35,6.35,0,0,0-1.42-.66c-.61-.21-1.38-.43-2.32-.67s-1.52-.42-2.14-.64a5.5,5.5,0,0,1-1.57-.8,3.05,3.05,0,0,1-1-1.15,4,4,0,0,1-.32-1.69,3.39,3.39,0,0,1,.37-1.59,3.45,3.45,0,0,1,1-1.21,4.74,4.74,0,0,1,1.63-.77,8.07,8.07,0,0,1,2.11-.26,7.47,7.47,0,0,1,4,.88,3.43,3.43,0,0,1,1.52,2.8h-1.54a2.11,2.11,0,0,0-1.06-1.63,5.48,5.48,0,0,0-2.7-.53,7,7,0,0,0-1.55.16,3.76,3.76,0,0,0-1.21.44,2.37,2.37,0,0,0-.79.75,1.86,1.86,0,0,0-.28,1,2,2,0,0,0,.11.67,1.62,1.62,0,0,0,.58.7,5.32,5.32,0,0,0,1.41.73,20.23,20.23,0,0,0,2.55.78,20.08,20.08,0,0,1,2.23.68,6,6,0,0,1,1.56.83,3.12,3.12,0,0,1,.92,1.14,3.58,3.58,0,0,1,.3,1.52,4.14,4.14,0,0,1-.39,1.82,4.18,4.18,0,0,1-1.1,1.47,5.54,5.54,0,0,1-1.75,1A7.21,7.21,0,0,1,102.2,82.43Z" transform="translate(-2.39 -0.91)" style="fill:#fff"></path>
      <path d="M132,66.89a6.65,6.65,0,0,1,2.73.53,5.42,5.42,0,0,1,2.08,1.52,6.88,6.88,0,0,1,1.31,2.44,11.77,11.77,0,0,1,0,6.55,7.11,7.11,0,0,1-1.32,2.45,5.63,5.63,0,0,1-2.08,1.53,7,7,0,0,1-2.71.52,6.83,6.83,0,0,1-2.69-.51,5.49,5.49,0,0,1-2.07-1.52A7,7,0,0,1,125.86,78a11.67,11.67,0,0,1,0-6.59,7.06,7.06,0,0,1,1.32-2.44,5.7,5.7,0,0,1,2.09-1.5A6.57,6.57,0,0,1,132,66.89Zm0,14a5.2,5.2,0,0,0,2-.39,4.2,4.2,0,0,0,1.6-1.18,5.62,5.62,0,0,0,1-2,10,10,0,0,0,0-5.46,5.35,5.35,0,0,0-1-1.94,4.15,4.15,0,0,0-1.6-1.16,5,5,0,0,0-2-.4,5.13,5.13,0,0,0-2.07.4A4.19,4.19,0,0,0,128.3,70a5.2,5.2,0,0,0-1,1.94,10.53,10.53,0,0,0,0,5.46,5.46,5.46,0,0,0,1,2,4.24,4.24,0,0,0,1.59,1.18A5.3,5.3,0,0,0,132,80.9Z" transform="translate(-2.39 -0.91)" style="fill:#fff"></path>
      <path d="M158.66,82.05h-1.53V61.16h1.53Z" transform="translate(-2.39 -0.91)" style="fill:#fff"></path>
      <path d="M187.91,80.07a5.69,5.69,0,0,1-1.25,1.11,8.23,8.23,0,0,1-1.41.73,7.9,7.9,0,0,1-1.41.4,7.39,7.39,0,0,1-1.25.12q-4.54,0-4.54-5.4V67.27h1.52V76.9a4.8,4.8,0,0,0,.78,3,3.27,3.27,0,0,0,2.68,1,4.73,4.73,0,0,0,2.58-.76,8.94,8.94,0,0,0,2.3-2.17V67.27h1.52V82.05h-1.52Z" transform="translate(-2.39 -0.91)" style="fill:#fff"></path>
      <path d="M213.54,82.19l-.65,0-.65,0a3.75,3.75,0,0,1-1.59-.28,2,2,0,0,1-.92-.83,3.56,3.56,0,0,1-.4-1.38,15.83,15.83,0,0,1-.1-1.94v-9h-1.89V67.27h1.89V63.4h1.53v3.87h2.41v1.52h-2.41V78a6.39,6.39,0,0,0,.13,1.46,1.94,1.94,0,0,0,.4.84,1.31,1.31,0,0,0,.65.38,4.86,4.86,0,0,0,.9.08h.36a2.12,2.12,0,0,0,.34,0Z" transform="translate(-2.39 -0.91)" style="fill:#fff"></path>
      <path d="M233,82.05h-1.53V67.27H233Zm0-18.5h-1.53V61.16H233Z" transform="translate(-2.39 -0.91)" style="fill:#fff"></path>
      <path d="M258,66.89a6.64,6.64,0,0,1,2.72.53,5.5,5.5,0,0,1,2.08,1.52,6.89,6.89,0,0,1,1.32,2.44,11.77,11.77,0,0,1,0,6.55,7.12,7.12,0,0,1-1.33,2.45,5.55,5.55,0,0,1-2.08,1.53,6.91,6.91,0,0,1-2.7.52,6.84,6.84,0,0,1-2.7-.51,5.57,5.57,0,0,1-2.07-1.52A7,7,0,0,1,251.92,78a10.56,10.56,0,0,1-.47-3.32,10.33,10.33,0,0,1,.47-3.27,7.06,7.06,0,0,1,1.32-2.44,5.59,5.59,0,0,1,2.08-1.5A6.59,6.59,0,0,1,258,66.89Zm0,14a5.24,5.24,0,0,0,2.05-.39,4.24,4.24,0,0,0,1.59-1.18,5.63,5.63,0,0,0,1-2,10.26,10.26,0,0,0,0-5.46,5.36,5.36,0,0,0-1-1.94,4.19,4.19,0,0,0-1.59-1.16,5.5,5.5,0,0,0-4.12,0A4,4,0,0,0,254.37,70a5.21,5.21,0,0,0-1,1.94,10.82,10.82,0,0,0,0,5.46,5.47,5.47,0,0,0,1,2A4.09,4.09,0,0,0,256,80.51,5.27,5.27,0,0,0,258,80.9Z" transform="translate(-2.39 -0.91)" style="fill:#fff"></path>
      <path d="M284.49,69.46A8.46,8.46,0,0,1,286,68.07a6.85,6.85,0,0,1,1.4-.78,5.19,5.19,0,0,1,1.28-.34q.62-.06,1.14-.06,4.58,0,4.57,5.38v9.78h-1.53V72.4a7.69,7.69,0,0,0-.18-1.78,3,3,0,0,0-.59-1.24,2.53,2.53,0,0,0-1.07-.73,4.75,4.75,0,0,0-1.61-.24,4.65,4.65,0,0,0-2.47.75,10.71,10.71,0,0,0-2.4,2.09v10.8H283V67.27h1.52Z" transform="translate(-2.39 -0.91)" style="fill:#fff"></path>
      <path d="M318.61,82.43q-5.43,0-5.94-4.37h1.56a2.86,2.86,0,0,0,1.23,2.09,5.37,5.37,0,0,0,3.13.75,6.71,6.71,0,0,0,1.77-.21,4.16,4.16,0,0,0,1.27-.59,2.47,2.47,0,0,0,.76-.89,2.61,2.61,0,0,0,.24-1.11,2.25,2.25,0,0,0-.2-1,1.85,1.85,0,0,0-.72-.76,6.68,6.68,0,0,0-1.43-.66c-.61-.21-1.38-.43-2.32-.67s-1.51-.42-2.14-.64a5.64,5.64,0,0,1-1.57-.8,3.05,3.05,0,0,1-1-1.15,4.17,4.17,0,0,1-.32-1.69,3.51,3.51,0,0,1,.37-1.59,3.55,3.55,0,0,1,1-1.21,4.83,4.83,0,0,1,1.63-.77,8.07,8.07,0,0,1,2.11-.26,7.48,7.48,0,0,1,4,.88,3.48,3.48,0,0,1,1.52,2.8h-1.55A2.09,2.09,0,0,0,321,68.94a5.46,5.46,0,0,0-2.69-.53,6.92,6.92,0,0,0-1.56.16,3.94,3.94,0,0,0-1.21.44,2.34,2.34,0,0,0-.78.75,1.79,1.79,0,0,0-.29,1,2.06,2.06,0,0,0,.12.67,1.49,1.49,0,0,0,.58.7,5.24,5.24,0,0,0,1.4.73,20.23,20.23,0,0,0,2.55.78,19.45,19.45,0,0,1,2.23.68,5.86,5.86,0,0,1,1.56.83,3.12,3.12,0,0,1,.92,1.14,3.44,3.44,0,0,1,.31,1.52,4.28,4.28,0,0,1-.39,1.82,4.21,4.21,0,0,1-1.11,1.47,5.43,5.43,0,0,1-1.75,1A7.17,7.17,0,0,1,318.61,82.43Z" transform="translate(-2.39 -0.91)" style="fill:#fff"></path>
    </g>
  </g>
</svg>
